<?xml version="1.0" encoding="utf-8"?>

<!DOCTYPE svg PUBLIC "-//W3C//DTD SVG 1.1//EN" "http://www.w3.org/Graphics/SVG/1.1/DTD/svg11.dtd">
<svg version="1.1" id="Layer_1" xmlns="http://www.w3.org/2000/svg" xmlns:xlink="http://www.w3.org/1999/xlink" x="0px" y="0px"
	 viewBox="0 0 1645.821 1645.821" enable-background="new 0 0 1645.821 1645.821" xml:space="preserve">
<g>
	<g>
		<path fill="#010101" d="M1572.9,1124.094c-17.54-5.846-22.608-18.565-21.983-36.957c5.922-16.797,8.053-22.46,16.402-50.56
			l-4.27-1.223c-7.546,25.406-17.905,57.998-31.314,88.41c-22.582,51.678-25.003,54.234-32.194,56.954
			c-8.547,3.208-17.199-1.619-19.457-10.309c-2.194-8.358,0.704-10.001,15.713-42.156c16.211-35.267,27.494-68.275,37.362-101.464
			l-5.551-1.59c-18.61,62.576-42.719,117.013-61.593,149.63c-10.924,19.546-37.572,3.439-27.263-14.95
			c24.214-41.757,45.139-96.787,58.966-143.245l-4.688-1.343c-1.877,6.305-13.155,45.698-28.33,79.988
			c-20.969,47.904-22.607,49.112-29.52,51.339c-8.243,2.633-16.89-2.194-19.454-10.307c-2.472-7.754,0.224-9.216,13.762-38.193
			c14.74-32.028,24.897-62.006,33.653-91.391l-5.124-1.468c-10.734,36.089-27.902,83.082-33.724,88.483
			c-9.654,8.8-26.081,1.34-26.127-11.786c-0.051-4.136,0.266-2.936,10.635-28.28c47.98-122.721,21.995-155.547,75.666-190.369
			c1.088-16.991,1.104-28.412,1.252-39.619c31.136-0.338,118.843-1.638,117.253,0.135c-1.324,1.456-0.829,21.915-1.495,47.018
			c28.793,31.824,21.352,71.592,14.714,106.303c-8.368,43.507-22.552,94.743-42.673,145.434
			C1573.115,1123.566,1572.9,1124.094,1572.9,1124.094z"/>
	</g>
	<g>
		<path fill="#010101" d="M1321.811,1458.601c-12.24-13.776-10.423-27.395-0.659-43.033c13.379-11.316,26.896-23.306,39.446-35.548
			l-3.085-3.196c-48.971,47.767-112.706,92.311-120.998,94.055c-15.08,3.113-24.177-12.47-15.442-24.145
			c3.159-4.258,3.635-3.431,23.109-16.927c33.806-23.439,66.321-50.545,91.737-75.352l-4.01-4.154
			c-39.827,38.882-81.984,70.193-128.02,98.923c-19.164,11.474-34.355-15.702-16.183-26.549
			c50.597-31.596,90.827-63.693,122.609-94.744l-3.387-3.509c-43.415,42.415-102.011,83.761-109.654,85.098
			c-13.908,2.375-23.049-13.178-15.442-24.144c2.711-3.942,3.283-3.237,20.767-15.366c30.473-21.109,60.085-45.825,82.734-67.957
			l-3.702-3.835c-7.621,7.452-65.941,62.445-79.299,59.974c-12.089-2.338-18.928-19.066-5.706-28.695
			c121.408-91.24,111.893-137.396,179.132-140.891c11.388-17.298,15.537-24.565,20.897-33.624
			c27.601,15.572,103.676,58.097,101.422,58.838c-1.616,0.519-8.455,12.978-24.868,39.995c5.979,27.996-5.987,57.28-19.538,74.132
			c-36.97,45.878-75.224,85.051-126.977,126.733C1323.586,1457.174,1321.811,1458.601,1321.811,1458.601z"/>
	</g>
	<g>
		<path fill="#010101" d="M936.978,1622.91c-2.868-14.108,0.722-26.881,21.043-37.478c17.351-2.957,35.928-7.127,51.985-11.044
			l-1.07-4.311c-47.663,11.63-87.899,18.005-144.982,21.598c-22.943,1.222-24.27-29.843-1.633-31.049
			c50.319-3.179,89.336-8.577,139.125-20.725l-1.391-5.604c-56.63,13.818-101.589,19.3-158.549,21.369
			c-25.037,0.322-24.374-30.791-0.774-31.083c25.306-0.928,77.527-2.329,151.833-20.463l-1.175-4.734
			c-42.766,10.436-78.766,16.215-131.261,19.553c-20.86,1.112-21.978-29.964-1.633-31.049c45.052-2.88,80.075-7.62,125.404-18.68
			l-1.284-5.173c-33.339,8.131-53.462,11.365-83.753,15.101c-20.744,2.376-23.839-16.01-16.887-24.952
			c7.801-10.02,14.988-1.595,87.131-18.856c80.084-18.989,101.048-43.99,149.664-19.175c14.779-7.333,31.555-16.746,34.877-18.712
			c16.172,27.265,60.908,102.014,58.601,101.559c-1.965-0.342-19.329,10.204-41.513,22.262
			c-10.348,32.537-38.009,48.492-69.321,60.391c-47.598,16.833-104.101,33.315-158.228,40.381
			C939.235,1622.593,936.978,1622.91,936.978,1622.91z"/>
	</g>
	<g>
		<path fill="#010101" d="M521.727,1572.9c5.844-17.533,18.556-22.608,36.957-21.983c16.73,5.898,22.403,8.036,50.56,16.402
			l1.224-4.27c-25.498-7.575-58.039-17.923-88.41-31.314c-52.481-22.932-54.274-25.11-56.954-32.194
			c-3.208-8.547,1.619-17.199,10.309-19.457c8.313-2.182,9.761,0.591,42.156,15.714c35.131,16.147,68.039,27.424,101.464,37.362
			l1.591-5.551c-62.329-18.533-116.892-42.648-149.631-61.593c-19.546-10.924-3.439-37.572,14.95-27.262
			c41.895,24.29,97.031,45.212,143.246,58.966l1.343-4.688c-7.964-2.371-46.292-13.418-79.988-28.33
			c-48.391-21.183-49.154-22.736-51.339-29.52c-2.633-8.244,2.194-16.89,10.307-19.454c7.753-2.471,9.217,0.224,38.193,13.762
			c31.974,14.715,62.055,24.911,91.39,33.653l1.468-5.124c-34.007-10.114-82.835-27.635-88.483-33.724
			c-8.804-9.658-1.337-26.082,11.786-26.127c4.143-0.052,2.926,0.262,28.281,10.635c122.828,48.021,155.494,21.912,190.369,75.666
			c16.998,1.089,28.439,1.105,39.619,1.253c0.338,31.124,1.637,118.843-0.135,117.253c-1.456-1.324-21.823-0.828-47.018-1.495
			c-31.909,28.869-71.819,21.309-106.303,14.714c-43.234-8.316-94.505-22.457-145.434-42.673
			C522.255,1573.115,521.727,1572.9,521.727,1572.9z"/>
	</g>
	<g>
		<path fill="#010101" d="M187.219,1321.811c13.776-12.239,27.394-10.424,43.033-0.659c11.32,13.383,23.306,26.896,35.548,39.446
			l3.196-3.085c-47.395-48.584-92.277-112.543-94.055-120.998c-3.108-15.055,12.455-24.187,24.145-15.442
			c4.248,3.152,3.475,3.698,16.927,23.109c23.428,33.786,50.535,66.313,75.352,91.736l4.154-4.01
			c-38.831-39.784-70.104-81.844-98.923-128.021c-11.474-19.164,15.702-34.355,26.549-16.183
			c31.502,50.446,63.526,90.647,94.744,122.609l3.509-3.387c-42.271-43.274-83.75-101.948-85.098-109.654
			c-2.377-13.916,13.184-23.045,24.144-15.442c3.958,2.721,3.225,3.266,15.366,20.767c21.11,30.478,45.898,60.166,67.957,82.734
			l3.835-3.702c-7.449-7.617-62.443-65.947-59.974-79.299c2.343-12.115,19.082-18.907,28.696-5.706
			c91.075,121.197,137.395,111.893,140.891,179.132c17.326,11.407,24.618,15.569,33.624,20.897
			c-15.576,27.607-58.097,103.676-58.838,101.422c-0.518-1.612-12.875-8.393-39.995-24.867c-27.996,5.979-57.28-5.987-74.132-19.538
			c-45.24-36.456-84.725-74.821-126.733-126.977C188.646,1323.586,187.219,1321.811,187.219,1321.811z"/>
	</g>
	<g>
		<path fill="#010101" d="M22.91,936.978c14.108-2.868,26.881,0.722,37.478,21.043c2.901,17.025,7.032,35.535,11.044,51.985
			l4.311-1.07c-11.6-47.539-17.996-87.752-21.598-144.982c-1.222-22.943,29.843-24.27,31.049-1.633
			c3.174,50.237,8.565,89.293,20.725,139.125l5.604-1.391C97.611,943.033,92.204,898,90.154,841.505
			c-0.322-25.038,30.79-24.374,31.083-0.774c0.932,25.443,2.345,77.59,20.463,151.833l4.734-1.175
			c-10.529-43.147-16.243-79.197-19.553-131.261c-1.114-20.884,29.964-21.964,31.049-1.633c2.884,45.126,7.641,80.17,18.68,125.403
			l5.173-1.284c-8.127-33.316-11.366-53.469-15.101-83.753c-2.374-20.725,15.991-23.853,24.952-16.888
			c10.02,7.801,1.595,14.988,18.856,87.131c19.004,80.145,44.002,101.024,19.175,149.664c7.366,14.846,16.808,31.663,18.712,34.877
			c-27.611,16.377-102.013,60.905-101.559,58.6c0.342-1.965-10.225-19.366-22.262-41.513c-32.55-10.352-48.502-38.035-60.391-69.321
			c-16.877-47.722-33.324-104.182-40.381-158.228C23.227,939.235,22.91,936.978,22.91,936.978z"/>
	</g>
	<g>
		<path fill="#010101" d="M72.921,521.727c17.54,5.846,22.608,18.565,21.983,36.957c-5.898,16.73-8.055,22.463-16.402,50.56
			l4.27,1.223c7.531-25.354,17.896-57.978,31.314-88.41c22.557-51.621,24.976-54.224,32.194-56.954
			c8.547-3.208,17.199,1.619,19.457,10.309c2.194,8.359-0.706,10.005-15.713,42.156c-16.141,35.115-27.433,68.068-37.362,101.464
			l5.551,1.591c18.553-62.394,42.647-116.889,61.593-149.631c10.924-19.546,37.572-3.439,27.262,14.95
			c-24.207,41.749-45.145,96.806-58.966,143.245l4.688,1.343c1.884-6.328,13.159-45.708,28.33-79.988
			c21.151-48.326,22.707-49.145,29.52-51.339c8.244-2.633,16.89,2.195,19.454,10.307c2.472,7.754-0.224,9.217-13.762,38.193
			c-14.554,31.625-24.763,61.559-33.653,91.39l5.124,1.468c10.977-36.909,28.018-83.189,33.724-88.483
			c9.658-8.804,26.081-1.337,26.127,11.786c0.051,4.143-0.263,2.929-10.635,28.281c-48.037,122.867-21.91,155.493-75.666,190.369
			c-1.088,16.991-1.104,28.412-1.253,39.619c-31.333,0.34-118.842,1.636-117.253-0.135c1.325-1.457,0.826-21.787,1.495-47.018
			c-28.837-31.873-21.336-71.677-14.714-106.303c8.324-43.282,22.529-94.682,42.673-145.434
			C72.705,522.255,72.921,521.727,72.921,521.727z"/>
	</g>
	<g>
		<path fill="#010101" d="M324.01,187.219c12.24,13.776,10.423,27.396,0.659,43.033c-13.392,11.328-26.896,23.306-39.446,35.548
			l3.085,3.196c48.66-47.471,112.582-92.285,120.998-94.055c15.075-3.112,24.179,12.466,15.442,24.145
			c-3.152,4.248-3.696,3.473-23.109,16.927c-33.616,23.31-66.116,50.345-91.737,75.352l4.01,4.154
			c39.629-38.684,81.647-69.981,128.02-98.923c19.164-11.474,34.355,15.702,16.183,26.549
			c-50.752,31.692-90.993,63.861-122.609,94.744l3.387,3.509c43.433-42.426,102.014-83.762,109.654-85.098
			c13.927-2.378,23.041,13.189,15.442,24.144c-2.723,3.961-3.243,3.209-20.767,15.366c-30.583,21.183-60.227,45.957-82.734,67.957
			l3.702,3.835c7.598-7.43,65.947-62.443,79.299-59.974c12.089,2.338,18.929,19.066,5.706,28.695
			C327.811,407.54,337.311,453.72,270.064,457.216c-11.407,17.326-15.569,24.618-20.897,33.624
			c-27.411-15.465-103.677-58.097-101.422-58.838c1.614-0.518,8.421-12.921,24.868-39.995c-6.383-29.888,7.774-59.503,19.538-74.132
			c36.326-45.079,74.78-84.693,126.977-126.733C322.235,188.646,324.01,187.219,324.01,187.219z"/>
	</g>
	<g>
		<path fill="#010101" d="M708.842,22.91c2.868,14.108-0.722,26.881-21.043,37.478c-17.316,2.951-35.964,7.136-51.985,11.044
			l1.07,4.311c47.539-11.6,87.752-17.996,144.982-21.598c22.944-1.222,24.269,29.843,1.633,31.049
			c-50.215,3.173-89.262,8.557-139.125,20.725l1.391,5.604c56.6-13.811,101.583-19.303,158.549-21.369
			c25.038-0.322,24.374,30.79,0.774,31.083c-25.42,0.931-77.558,2.337-151.833,20.463l1.175,4.734
			c42.756-10.434,78.761-16.215,131.261-19.553c20.884-1.114,21.964,29.964,1.633,31.049c-44.563,2.847-79.683,7.523-125.404,18.68
			l1.284,5.173c33.245-8.109,53.33-11.349,83.753-15.101c20.719-2.374,23.853,15.992,16.888,24.952
			c-7.801,10.02-14.988,1.595-87.131,18.856c-79.71,18.901-101.108,43.96-149.664,19.175c-14.846,7.366-31.663,16.808-34.877,18.712
			c-16.171-27.264-60.908-102.014-58.601-101.559c1.964,0.342,19.346-10.214,41.513-22.262c10.373-32.614,38.16-48.55,69.321-60.391
			c47.5-16.799,104.088-33.312,158.228-40.381C706.585,23.227,708.842,22.91,708.842,22.91z"/>
	</g>
	<g>
		<path fill="#010101" d="M1124.094,72.921c-5.846,17.539-18.565,22.608-36.957,21.983c-16.73-5.898-22.463-8.054-50.56-16.402
			l-1.224,4.27c25.353,7.531,57.937,17.879,88.411,31.314c51.699,22.591,54.233,25,56.954,32.194
			c3.208,8.547-1.619,17.199-10.309,19.457c-8.307,2.181-9.741-0.582-42.156-15.713c-35.281-16.216-68.273-27.494-101.464-37.362
			l-1.591,5.551c62.243,18.508,116.82,42.606,149.631,61.593c19.547,10.924,3.44,37.572-14.95,27.263
			c-41.738-24.2-96.786-45.139-143.245-58.966l-1.343,4.688c6.378,1.899,45.724,13.166,79.988,28.33
			c46.555,20.378,49.029,22.348,51.339,29.52c2.632,8.244-2.194,16.89-10.307,19.454c-7.756,2.472-9.231-0.231-38.193-13.762
			c-31.906-14.683-61.899-24.865-91.391-33.653l-1.468,5.124c34.094,10.14,82.88,27.684,88.483,33.724
			c8.804,9.658,1.337,26.081-11.786,26.127c-4.139,0.051-2.916-0.258-28.281-10.635c-122.865-48.036-155.494-21.911-190.369-75.666
			c-16.991-1.088-28.412-1.104-39.619-1.253c-0.338-31.077-1.638-118.843,0.135-117.253c1.457,1.325,21.783,0.826,47.018,1.495
			c31.959-28.915,71.914-21.29,106.303-14.714c43.268,8.322,94.589,22.492,145.434,42.673
			C1123.566,72.705,1124.094,72.921,1124.094,72.921z"/>
	</g>
	<g>
		<path fill="#010101" d="M1458.601,324.01c-13.776,12.24-27.396,10.423-43.033,0.659c-11.319-13.38-23.305-26.897-35.548-39.446
			l-3.196,3.085c47.742,48.946,92.309,112.698,94.055,120.997c3.108,15.055-12.455,24.187-24.146,15.442
			c-4.251-3.155-3.463-3.682-16.927-23.109c-23.374-33.711-50.44-66.213-75.352-91.737l-4.155,4.01
			c38.819,39.767,70.117,81.862,98.923,128.02c11.474,19.164-15.702,34.355-26.549,16.183
			c-31.588-50.585-63.734-90.859-94.744-122.609l-3.509,3.387c42.381,43.394,83.758,101.995,85.098,109.654
			c2.375,13.908-13.179,23.049-24.144,15.442c-3.961-2.723-3.209-3.243-15.366-20.767c-21.029-30.361-45.795-60.063-67.957-82.734
			l-3.835,3.702c7.56,7.73,62.439,65.969,59.974,79.299c-2.343,12.116-19.081,18.907-28.695,5.706
			c-91.243-121.411-137.396-111.891-140.891-179.132c-17.262-11.365-24.496-15.497-33.624-20.897
			c15.467-27.415,58.097-103.677,58.838-101.422c0.517,1.611,12.869,8.389,39.995,24.868c29.889-6.383,59.503,7.774,74.132,19.538
			c44.995,36.258,84.578,74.637,126.733,126.977C1457.174,322.235,1458.601,324.01,1458.601,324.01z"/>
	</g>
	<g>
		<path fill="#010101" d="M1622.91,708.842c-14.108,2.868-26.881-0.722-37.478-21.043c-2.957-17.351-7.127-35.928-11.044-51.985
			l-4.311,1.07c11.681,47.873,18.019,88.129,21.598,144.982c1.222,22.944-29.843,24.27-31.049,1.633
			c-3.18-50.335-8.589-89.395-20.725-139.125l-5.604,1.391c13.998,57.37,19.33,102.429,21.369,158.549
			c0.322,25.039-30.792,24.373-31.083,0.774c-1.421-38.761-4.137-84.935-20.463-151.833l-4.734,1.175
			c10.555,43.255,16.246,79.257,19.553,131.261c1.112,20.86-29.964,21.978-31.049,1.633c-2.847-44.577-7.524-79.683-18.68-125.404
			l-5.173,1.284c8.172,33.507,11.394,53.688,15.101,83.753c2.364,20.633-15.932,23.899-24.952,16.888
			c-10.02-7.802-1.595-14.988-18.856-87.131c-18.946-79.9-43.972-101.084-19.175-149.664c-7.362-14.836-16.799-31.648-18.712-34.877
			c27.263-16.171,102.014-60.908,101.559-58.601c-0.342,1.966,10.191,19.304,22.262,41.513
			c32.539,10.349,48.495,38.016,60.391,69.321c16.801,47.505,33.297,103.986,40.381,158.228
			C1622.593,706.585,1622.91,708.842,1622.91,708.842z"/>
	</g>
</g>
</svg>
